<?xml version="1.0" standalone="no"?>
<!DOCTYPE svg PUBLIC "-//W3C//DTD SVG 1.1//EN" "http://www.w3.org/Graphics/SVG/1.1/DTD/svg11.dtd" >
<svg class="spinner small" xmlns="http://www.w3.org/2000/svg" xmlns:xlink="http://www.w3.org/1999/xlink" viewBox="0 0 281.77 281.77">
	<defs>
		<style>
			.track { fill:#eee;}
			.arc-tail { fill:url(#linear-gradient);}
			.arc-head { fill:#573866;}
			.arc-clear { fill:none;}
		</style>
		<linearGradient id="linear-gradient" x1="168.16" y1="97.33" x2="309.04" y2="97.33" gradientUnits="userSpaceOnUse">
			<stop offset="0.02" stop-color="#eee"></stop>
			<stop offset="0.13" stop-color="#c9c1cc"></stop>
			<stop offset="0.25" stop-color="#a697ad"></stop>
			<stop offset="0.37" stop-color="#897593"></stop>
			<stop offset="0.5" stop-color="#735a7f"></stop>
			<stop offset="0.62" stop-color="#644771"></stop>
			<stop offset="0.75" stop-color="#5a3c69"></stop>
			<stop offset="0.89" stop-color="#573866"></stop>
		</linearGradient>
	</defs>
	<path class="track" d="M168.16,26.9A140.88,140.88,0,1,0,309,167.78,140.88,140.88,0,0,0,168.16,26.9Zm0,239.24a98.36,98.36,0,1,1,98.36-98.36A98.36,98.36,0,0,1,168.16,266.14Z" transform="translate(-27.28 -26.9)"></path>
	<g class="indicator">
		<path class="arc-tail" d="M266.52,167.77H309A140.88,140.88,0,0,0,168.16,26.9V69.42A98.36,98.36,0,0,1,266.52,167.77Z" transform="translate(-27.28 -26.9)"></path>
		<path class="arc-head" d="M266.52,167.57H309c0,77.8-63.08,141.09-140.88,141.09V266.13C222.48,266.13,266.52,221.89,266.52,167.57Z" transform="translate(-27.28 -26.9)"></path>
		<path class="arc-clear" d="M69.8,167.77H27.28A140.88,140.88,0,0,1,168.16,26.9V69.42A98.36,98.36,0,0,0,69.8,167.77Z" transform="translate(-27.28 -26.9)"></path>
		<path class="arc-clear" d="M69.8,167.78H27.28A140.88,140.88,0,0,0,168.16,308.65V266.13A98.36,98.36,0,0,1,69.8,167.78Z" transform="translate(-27.28 -26.9)"></path>
	</g>
</svg>